<svg id="Layer_1" data-name="Layer 1" xmlns="http://www.w3.org/2000/svg" viewBox="0 0 790.22 790.22"><defs><style>.cls-1{fill:#004780;}</style></defs><path class="cls-1" d="M470.75,665.07C264.51,736.18,155,961,226.07,1167.25S522,1483,728.25,1411.93,1044,1116,972.93,909.75,677,594,470.75,665.07Zm256,642.67C586,1356.26,432.59,1281.51,384.08,1140.8S410.31,846.69,551,798.18s294.11,26.23,342.62,166.94S867.42,1259.23,726.7,1307.74Z" transform="translate(-204.39 -643.39)"/><path class="cls-1" d="M513.53,977.31v147.44H480l0-99.54-13.34,99.54H442.86l-14.07-97.26,0,97.26H395.23V977.31h49.61q2.21,13.31,4.55,31.35l5.45,37.5,8.81-68.85Z" transform="translate(-204.39 -643.39)"/><path class="cls-1" d="M604.84,1003.91l-10.51,87.42q-2.49,20.76-4.18,28.32a30.29,30.29,0,0,1-5.6,12.48,22.66,22.66,0,0,1-10.88,7.24q-7,2.31-22.26,2.32H529.1v-19.31q8.58,0,11-.86a3.66,3.66,0,0,0,2.46-3.87q0-1.45-2.28-12.66l-20.14-101.08h33.39l12.09,81.59,5.9-81.59Z" transform="translate(-204.39 -643.39)"/><path class="cls-1" d="M678.79,977.31l21.92,147.44H661.53l-2.06-26.5H645.76l-2.3,26.5H603.82l19.56-147.44Zm-20.32,94.8q-2.91-25-5.84-61.92-5.86,42.35-7.36,61.92Z" transform="translate(-204.39 -643.39)"/><path class="cls-1" d="M743.56,1003.91l-.64,10.67a34.24,34.24,0,0,1,10.84-9.67,26.8,26.8,0,0,1,12.93-3.19,24.23,24.23,0,0,1,14.8,4.6q6.24,4.59,7.79,10.61t1.54,20.4v50.9q0,16.49-2,23.45a19.47,19.47,0,0,1-8,11.11,25.28,25.28,0,0,1-14.61,4.15,25.89,25.89,0,0,1-12.66-3.2,34.4,34.4,0,0,1-10.66-9.49V1142H706.13V1003.91ZM754,1039.06q0-11.2-.82-13.57t-4.55-2.37q-3.64,0-4.69,2.73t-1.05,13.21v50.08q0,10.93,1.1,13.66c.72,1.82,2.3,2.74,4.73,2.74s3.84-.84,4.42-2.51.86-5.72.86-12.16Z" transform="translate(-204.39 -643.39)"/><path class="cls-1" d="M840.36,1003.91l-.63,10.67a34.21,34.21,0,0,1,10.83-9.67,26.8,26.8,0,0,1,12.93-3.19,24.23,24.23,0,0,1,14.8,4.6q6.24,4.59,7.79,10.61t1.55,20.4v50.9q0,16.49-2,23.45a19.5,19.5,0,0,1-8,11.11,25.29,25.29,0,0,1-14.62,4.15,25.94,25.94,0,0,1-12.66-3.2,34.37,34.37,0,0,1-10.65-9.49V1142H802.94V1003.91Zm10.48,35.15q0-11.2-.82-13.57t-4.56-2.37c-2.42,0-4,.91-4.69,2.73s-1,6.23-1,13.21v50.08q0,10.93,1.09,13.66c.73,1.82,2.31,2.74,4.73,2.74s3.84-.84,4.42-2.51.87-5.72.87-12.16Z" transform="translate(-204.39 -643.39)"/></svg>